# xmcd
#
# Track frame offsets: 
#        150
#        58581
#        81585
#        118765
#        157437
#        222986
#        258144
#        288119
#        308772
#
# Disc length: 4470 seconds
#
# Revision: 1
# Processed by: cddbd v1.5.2PL0 Copyright (c) Steve Scherf et al.
# Submitted via: ExactAudioCopy v1.0b6
#
DISCID=84117409
DTITLE=Elizabeth Joy Roe - Emil Tabakov, London Symphony Orchestra - BR
DTITLE=ITTEN • BARBER: Piano Concertos, Nocturnes (2015)
DYEAR=2015
DGENRE=Classical
TTITLE0=Britten: Piano Concerto, Op. 13 (Rev. 1945) - 1. Toccata
TTITLE1=Britten: Piano Concerto, Op. 13 (Rev. 1945) - 2. Waltz
TTITLE2=Britten: Piano Concerto, Op. 13 (Rev. 1945) - 3. Impromptu
TTITLE3=Britten: Piano Concerto, Op. 13 (Rev. 1945) - 4. March
TTITLE4=Barber: Piano Concerto, Op.38 - 1. Allegro Appassionato
TTITLE5=Barber: Piano Concerto, Op.38 - 2. Canzone. Moderato
TTITLE6=Barber: Piano Concerto, Op.38 - 3. Allegro Molto
TTITLE7=Barber: Nocturne, 'Homage To John Field' Op. 33
TTITLE8=Britten: Night Piece (Notturno)
EXTD=
EXTT0=
EXTT1=
EXTT2=
EXTT3=
EXTT4=
EXTT5=
EXTT6=
EXTT7=
EXTT8=
PLAYORDER=
